:FULLY-SPECIFIED
:FORCE-ALL-JOINTS-BE-3DOF
:DEGREES
544
root 5.73419 16.2858 -4.82527 -119.733 89.8646 -125.798
lfemur -21.0698 -3.24927 -24.4921
ltibia 45.7565 0 0
lfoot -30.3301 3.74161 0
ltoes 10.479 0 0
rfemur -58.9888 0.293096 13.5192
rtibia 59.3659 0 0
rfoot 9.00734 18.9964 0
rtoes -18.7068 0 0
lowerback 6.72483 -1.38071 -2.75736
upperback 0.92718 -1.86674 2.33044
thorax -2.64512 -0.89362 4.03275
lowerneck -8.75379 -12.2149 -3.32246
upperneck 13.3223 -16.5795 3.64985
head 5.9423 -7.93927 0.406949
lclavicle -1.14591e-14 -4.17502e-16 0
lhumerus -40.5801 -38.3865 113.748
lradius 56.5643 0 0
lwrist 10.073 0 0
lhand 3.40514 0.197891 0
lfingers 7.12502 0 0
lthumb 28.8257 27.7779 0
rclavicle -1.14591e-14 -4.17502e-16 0
rhumerus -4.77709 36.5526 -80.1548
rradius 118.295 0 0
rwrist -21.2567 0 0
rhand 0.902028 -13.9079 0
rfingers 7.12502 0 0
rthumb 26.3646 -761.062 0
545
root 5.73344 16.2808 -4.82315 -117.759 89.7614 -123.859
lfemur -20.9687 -2.69145 -24.5239
ltibia 45.5727 0 0
lfoot -30.447 4.13583 0
ltoes 10.453 0 0
rfemur -58.9289 -0.0340298 13.8268
rtibia 59.276 0 0
rfoot 8.96409 19.3132 0
rtoes -18.6296 0 0
lowerback 6.66737 -1.4159 -2.81857
upperback 0.924372 -1.91664 2.31906
thorax -2.60934 -0.918912 4.05709
lowerneck -8.73845 -12.2029 -3.29432
upperneck 13.3822 -16.5768 3.69343
head 5.96013 -7.93234 0.415032
lclavicle -1.22729e-14 -6.30791e-16 0
lhumerus -40.3245 -38.4553 113.54
lradius 56.5487 0 0
lwrist 10.2709 0 0
lhand 3.16302 0.206295 0
lfingers 7.12502 0 0
lthumb 28.5937 27.8182 0
rclavicle -1.22729e-14 -6.30791e-16 0
rhumerus -4.1468 36.0533 -80.1333
rradius 118.486 0 0
rwrist -22.0458 0 0
rhand 0.43222 -14.0156 0
rfingers 7.12502 0 0
rthumb 25.9136 -761.218 0
546
root 5.7326 16.2758 -4.82125 -115.76 89.6446 -121.896
lfemur -20.8681 -2.12946 -24.5539
ltibia 45.3886 0 0
lfoot -30.5623 4.53324 0
ltoes 10.4266 0 0
rfemur -58.8663 -0.365126 14.1371
rtibia 59.1873 0 0
rfoot 8.92051 19.6295 0
rtoes -18.5465 0 0
lowerback 6.6094 -1.45088 -2.87999
upperback 0.921545 -1.96628 2.30719
thorax -2.57326 -0.944086 4.08104
lowerneck -8.72279 -12.1897 -3.26521
upperneck 13.4416 -16.5726 3.73713
head 5.97773 -7.92462 0.423106
lclavicle -1.30945e-14 -8.45581e-16 0
lhumerus -40.0665 -38.5226 113.327
lradius 56.5325 0 0
lwrist 10.4713 0 0
lhand 2.91728 0.214959 0
lfingers 7.12502 0 0
lthumb 28.3583 27.8592 0
rclavicle -1.30945e-14 -8.45581e-16 0
rhumerus -3.51561 35.5479 -80.1112
rradius 118.674 0 0
rwrist -22.8376 0 0
rhand -0.0427801 -14.125 0
rfingers 7.12502 0 0
rthumb 25.4577 -761.377 0
547
root 5.73169 16.2709 -4.81954 -113.737 89.5142 -119.909
lfemur -20.7679 -1.56368 -24.5821
ltibia 45.2043 0 0
lfoot -30.676 4.93353 0
ltoes 10.3999 0 0
rfemur -58.8009 -0.699914 14.45
rtibia 59.0996 0 0
rfoot 8.87663 19.945 0
rtoes -18.4576 0 0
lowerback 6.55096 -1.48564 -2.94159
upperback 0.918696 -2.01567 2.29486
thorax -2.53689 -0.969134 4.10458
lowerneck -8.70682 -12.1752 -3.23516
upperneck 13.5004 -16.5668 3.78093
head 5.99507 -7.91612 0.431168
lclavicle -1.39231e-14 -1.06173e-15 0
lhumerus -39.8061 -38.5886 113.11
lradius 56.5159 0 0
lwrist 10.674 0 0
lhand 2.6681 0.223864 0
lfingers 7.12502 0 0
lthumb 28.1195 27.9008 0
rclavicle -1.39231e-14 -1.06173e-15 0
rhumerus -2.88385 35.0366 -80.0885
rradius 118.858 0 0
rwrist -23.6317 0 0
rhand -0.522674 -14.2358 0
rfingers 7.12502 0 0
rthumb 24.997 -761.537 0
548
root 5.73071 16.2662 -4.818 -111.693 89.3704 -117.901
lfemur -20.6682 -0.994518 -24.6085
ltibia 45.02 0 0
lfoot -30.788 5.3364 0
ltoes 10.3729 0 0
rfemur -58.7328 -1.03812 14.765
rtibia 59.013 0 0
rfoot 8.83253 20.2596 0
rtoes -18.3631 0 0
lowerback 6.49208 -1.52018 -3.00332
upperback 0.915821 -2.06477 2.28207
thorax -2.50029 -0.99405 4.12772
lowerneck -8.69056 -12.1596 -3.20424
upperneck 13.5585 -16.5595 3.82481
head 6.01216 -7.90688 0.43922
lclavicle -1.47581e-14 -1.27909e-15 0
lhumerus -39.5435 -38.653 112.887
lradius 56.4987 0 0
lwrist 10.8788 0 0
lhand 2.41565 0.232989 0
lfingers 7.12502 0 0
lthumb 27.8776 27.9431 0
rclavicle -1.47581e-14 -1.27909e-15 0
rhumerus -2.25185 34.5199 -80.065
rradius 119.039 0 0
rwrist -24.4276 0 0
rhand -1.00717 -14.3482 0
rfingers 7.12502 0 0
rthumb 24.532 -761.7 0
549
root 5.72964 16.2615 -4.81657 -109.629 89.2131 -115.872
lfemur -20.5691 -0.422372 -24.6329
ltibia 44.836 0 0
lfoot -30.8983 5.74152 0
ltoes 10.3458 0 0
rfemur -58.6621 -1.37945 15.082
rtibia 58.9274 0 0
rfoot 8.78825 20.5729 0
rtoes -18.263 0 0
lowerback 6.43281 -1.55449 -3.06516
upperback 0.912916 -2.1136 2.26883
thorax -2.46346 -1.01883 4.15044
lowerneck -8.67402 -12.1428 -3.17246
upperneck 13.6159 -16.5508 3.86875
head 6.02897 -7.89691 0.447261
lclavicle -1.5599e-14 -1.49753e-15 0
lhumerus -39.2786 -38.716 112.659
lradius 56.4811 0 0
lwrist 11.0856 0 0
lhand 2.16009 0.242313 0
lfingers 7.12502 0 0
lthumb 27.6327 27.9859 0
rclavicle -1.5599e-14 -1.49753e-15 0
rhumerus -1.61995 33.998 -80.0405
rradius 119.217 0 0
rwrist -25.2249 0 0
rhand -1.49596 -14.4621 0
rfingers 7.12502 0 0
rthumb 24.0628 -761.864 0
550
root 5.72851 16.257 -4.81522 -107.545 89.0425 -113.824
lfemur -20.4706 0.152361 -24.6555
ltibia 44.6524 0 0
lfoot -31.0067 6.14861 0
ltoes 10.3186 0 0
rfemur -58.5887 -1.72365 15.4006
rtibia 58.8429 0 0
rfoot 8.74383 20.8849 0
rtoes -18.1575 0 0
lowerback 6.37319 -1.58856 -3.12706
upperback 0.909977 -2.16212 2.25516
thorax -2.42646 -1.04346 4.17273
lowerneck -8.65721 -12.1249 -3.13988
upperneck 13.6726 -16.5407 3.91273
head 6.04551 -7.88622 0.45529
lclavicle -1.6445e-14 -1.7169e-15 0
lhumerus -39.0116 -38.7775 112.427
lradius 56.463 0 0
lwrist 11.2943 0 0
lhand 1.9016 0.251816 0
lfingers 7.12502 0 0
lthumb 27.385 28.0292 0
rclavicle -1.6445e-14 -1.7169e-15 0
rhumerus -0.988489 33.4713 -80.015
rradius 119.392 0 0
rwrist -26.023 0 0
rhand -1.98875 -14.5774 0
rfingers 7.12502 0 0
rthumb 23.5898 -762.031 0
